<svg xmlns="http://www.w3.org/2000/svg" xmlns:xlink="http://www.w3.org/1999/xlink" width="20" zoomAndPan="magnify" viewBox="0 0 375 374.999991" height="20" preserveAspectRatio="xMidYMid meet" version="1.0"><defs><g/></defs><g fill="#000000" fill-opacity="1"><g transform="translate(67.510209, 170.871404)"><g><path d="M 3.078125 -42.25 L 18.171875 -42.25 C 22.234375 -42.25 25.546875 -41.160156 28.109375 -38.984375 C 30.671875 -36.816406 31.953125 -33.722656 31.953125 -29.703125 C 31.953125 -26.585938 31.175781 -23.976562 29.625 -21.875 C 28.070312 -19.78125 25.960938 -18.304688 23.296875 -17.453125 L 37.84375 0 L 25.59375 0 L 12.703125 -16.6875 L 12.703125 0 L 3.078125 0 Z M 12.703125 -23.5 L 13.828125 -23.5 C 14.710938 -23.5 15.460938 -23.515625 16.078125 -23.546875 C 16.691406 -23.585938 17.390625 -23.707031 18.171875 -23.90625 C 18.960938 -24.113281 19.59375 -24.40625 20.0625 -24.78125 C 20.539062 -25.15625 20.953125 -25.703125 21.296875 -26.421875 C 21.640625 -27.140625 21.8125 -28.007812 21.8125 -29.03125 C 21.8125 -30.050781 21.640625 -30.921875 21.296875 -31.640625 C 20.953125 -32.359375 20.539062 -32.90625 20.0625 -33.28125 C 19.59375 -33.65625 18.960938 -33.941406 18.171875 -34.140625 C 17.390625 -34.347656 16.691406 -34.46875 16.078125 -34.5 C 15.460938 -34.539062 14.710938 -34.5625 13.828125 -34.5625 L 12.703125 -34.5625 Z M 12.703125 -23.5 "/></g></g></g><g fill="#000000" fill-opacity="1"><g transform="translate(99.354737, 170.871404)"><g><path d="M 33.484375 0 L 22.53125 0 L 16.75 -7.421875 L 10.953125 0 L 0 0 L 11.21875 -13.71875 L 1.59375 -26.265625 L 12.1875 -26.265625 L 16.75 -20.171875 L 21.296875 -26.265625 L 31.90625 -26.265625 L 22.265625 -13.71875 Z M 33.484375 0 "/></g></g></g><g fill="#000000" fill-opacity="1"><g transform="translate(128.024915, 170.871404)"><g><path d="M 3.078125 -42.25 L 18.484375 -42.25 C 22.785156 -42.25 26.265625 -41.140625 28.921875 -38.921875 C 31.585938 -36.703125 32.921875 -33.472656 32.921875 -29.234375 C 32.921875 -25.003906 31.570312 -21.6875 28.875 -19.28125 C 26.175781 -16.875 22.710938 -15.671875 18.484375 -15.671875 L 12.703125 -15.671875 L 12.703125 0 L 3.078125 0 Z M 12.703125 -23.34375 L 15.40625 -23.34375 C 17.5625 -23.34375 19.328125 -23.773438 20.703125 -24.640625 C 22.085938 -25.515625 22.78125 -26.945312 22.78125 -28.9375 C 22.78125 -30.945312 22.085938 -32.382812 20.703125 -33.25 C 19.328125 -34.125 17.5625 -34.5625 15.40625 -34.5625 L 12.703125 -34.5625 Z M 12.703125 -23.34375 "/></g></g></g><g fill="#000000" fill-opacity="1"><g transform="translate(157.309479, 170.871404)"><g><path d="M 3.078125 0 L 3.078125 -44.03125 L 12.140625 -44.03125 L 12.140625 0 Z M 3.078125 0 "/></g></g></g><g fill="#000000" fill-opacity="1"><g transform="translate(167.701521, 170.871404)"><g><path d="M 4.859375 -3.25 C 2.398438 -5.925781 1.171875 -9.207031 1.171875 -13.09375 C 1.171875 -16.988281 2.398438 -20.285156 4.859375 -22.984375 C 7.316406 -25.679688 10.441406 -27.03125 14.234375 -27.03125 C 17.710938 -27.03125 20.582031 -25.941406 22.84375 -23.765625 L 22.84375 -26.265625 L 31.90625 -26.265625 L 31.90625 0 L 22.9375 0 L 22.9375 -2.96875 L 22.84375 -2.96875 C 20.582031 -0.476562 17.710938 0.765625 14.234375 0.765625 C 10.441406 0.765625 7.316406 -0.570312 4.859375 -3.25 Z M 12.5625 -17.5625 C 11.382812 -16.40625 10.796875 -14.921875 10.796875 -13.109375 C 10.796875 -11.296875 11.359375 -9.816406 12.484375 -8.671875 C 13.617188 -7.535156 15.109375 -6.96875 16.953125 -6.96875 C 18.722656 -6.96875 20.179688 -7.546875 21.328125 -8.703125 C 22.472656 -9.867188 23.046875 -11.335938 23.046875 -13.109375 C 23.046875 -14.921875 22.457031 -16.40625 21.28125 -17.5625 C 20.101562 -18.71875 18.660156 -19.296875 16.953125 -19.296875 C 15.210938 -19.296875 13.75 -18.71875 12.5625 -17.5625 Z M 12.5625 -17.5625 "/></g></g></g><g fill="#000000" fill-opacity="1"><g transform="translate(197.856483, 170.871404)"><g><path d="M 3.078125 0 L 3.078125 -26.265625 L 12.140625 -26.265625 L 12.140625 -23.5 L 12.234375 -23.5 C 14.585938 -25.851562 17.097656 -27.03125 19.765625 -27.03125 C 21.054688 -27.03125 22.34375 -26.859375 23.625 -26.515625 C 24.90625 -26.179688 26.132812 -25.65625 27.3125 -24.9375 C 28.488281 -24.21875 29.441406 -23.203125 30.171875 -21.890625 C 30.910156 -20.578125 31.28125 -19.050781 31.28125 -17.3125 L 31.28125 0 L 22.21875 0 L 22.21875 -14.84375 C 22.21875 -16.207031 21.78125 -17.398438 20.90625 -18.421875 C 20.039062 -19.453125 18.910156 -19.96875 17.515625 -19.96875 C 16.148438 -19.96875 14.910156 -19.4375 13.796875 -18.375 C 12.691406 -17.320312 12.140625 -16.144531 12.140625 -14.84375 L 12.140625 0 Z M 3.078125 0 "/></g></g></g><g fill="#000000" fill-opacity="1"><g transform="translate(226.885061, 170.871404)"><g><path d="M 3.078125 0 L 3.078125 -26.265625 L 12.140625 -26.265625 L 12.140625 -23.5 L 12.234375 -23.5 C 14.585938 -25.851562 17.097656 -27.03125 19.765625 -27.03125 C 21.054688 -27.03125 22.34375 -26.859375 23.625 -26.515625 C 24.90625 -26.179688 26.132812 -25.65625 27.3125 -24.9375 C 28.488281 -24.21875 29.441406 -23.203125 30.171875 -21.890625 C 30.910156 -20.578125 31.28125 -19.050781 31.28125 -17.3125 L 31.28125 0 L 22.21875 0 L 22.21875 -14.84375 C 22.21875 -16.207031 21.78125 -17.398438 20.90625 -18.421875 C 20.039062 -19.453125 18.910156 -19.96875 17.515625 -19.96875 C 16.148438 -19.96875 14.910156 -19.4375 13.796875 -18.375 C 12.691406 -17.320312 12.140625 -16.144531 12.140625 -14.84375 L 12.140625 0 Z M 3.078125 0 "/></g></g></g><g fill="#000000" fill-opacity="1"><g transform="translate(255.913639, 170.871404)"><g><path d="M 29.640625 -11.875 L 10.59375 -11.875 C 10.59375 -10.03125 11.191406 -8.664062 12.390625 -7.78125 C 13.585938 -6.894531 14.882812 -6.453125 16.28125 -6.453125 C 17.75 -6.453125 18.910156 -6.644531 19.765625 -7.03125 C 20.617188 -7.425781 21.59375 -8.207031 22.6875 -9.375 L 29.234375 -6.09375 C 26.503906 -1.519531 21.960938 0.765625 15.609375 0.765625 C 11.648438 0.765625 8.253906 -0.585938 5.421875 -3.296875 C 2.585938 -6.015625 1.171875 -9.285156 1.171875 -13.109375 C 1.171875 -16.929688 2.585938 -20.207031 5.421875 -22.9375 C 8.253906 -25.664062 11.648438 -27.03125 15.609375 -27.03125 C 19.773438 -27.03125 23.164062 -25.828125 25.78125 -23.421875 C 28.394531 -21.015625 29.703125 -17.578125 29.703125 -13.109375 C 29.703125 -12.492188 29.679688 -12.082031 29.640625 -11.875 Z M 10.859375 -16.890625 L 20.84375 -16.890625 C 20.632812 -18.253906 20.09375 -19.300781 19.21875 -20.03125 C 18.351562 -20.769531 17.238281 -21.140625 15.875 -21.140625 C 14.375 -21.140625 13.175781 -20.75 12.28125 -19.96875 C 11.394531 -19.1875 10.921875 -18.160156 10.859375 -16.890625 Z M 10.859375 -16.890625 "/></g></g></g><g fill="#000000" fill-opacity="1"><g transform="translate(281.972658, 170.871404)"><g><path d="M 3.078125 0 L 3.078125 -26.265625 L 12.140625 -26.265625 L 12.140625 -22.484375 L 12.234375 -22.484375 C 12.304688 -22.617188 12.414062 -22.785156 12.5625 -22.984375 C 12.71875 -23.191406 13.050781 -23.550781 13.5625 -24.0625 C 14.082031 -24.570312 14.628906 -25.03125 15.203125 -25.4375 C 15.785156 -25.851562 16.535156 -26.222656 17.453125 -26.546875 C 18.378906 -26.867188 19.320312 -27.03125 20.28125 -27.03125 C 21.269531 -27.03125 22.238281 -26.894531 23.1875 -26.625 C 24.144531 -26.351562 24.847656 -26.082031 25.296875 -25.8125 L 26.015625 -25.390625 L 22.21875 -17.71875 C 21.09375 -18.675781 19.523438 -19.15625 17.515625 -19.15625 C 16.421875 -19.15625 15.476562 -18.914062 14.6875 -18.4375 C 13.90625 -17.957031 13.351562 -17.375 13.03125 -16.6875 C 12.707031 -16.007812 12.476562 -15.429688 12.34375 -14.953125 C 12.207031 -14.472656 12.140625 -14.097656 12.140625 -13.828125 L 12.140625 0 Z M 3.078125 0 "/></g></g></g><g fill="#000000" fill-opacity="1"><g transform="translate(97.31819, 196.969278)"><g><path d="M 6.046875 -7.21875 C 6.203125 -7.21875 6.328125 -7.171875 6.421875 -7.078125 C 6.515625 -6.984375 6.5625 -6.863281 6.5625 -6.71875 L 6.5625 -0.5 C 6.5625 -0.351562 6.507812 -0.234375 6.40625 -0.140625 C 6.3125 -0.046875 6.191406 0 6.046875 0 C 5.910156 0 5.789062 -0.046875 5.6875 -0.140625 C 5.582031 -0.234375 5.53125 -0.351562 5.53125 -0.5 L 5.53125 -3.171875 L 1.875 -3.171875 L 1.875 -0.5 C 1.875 -0.351562 1.820312 -0.234375 1.71875 -0.140625 C 1.613281 -0.046875 1.492188 0 1.359375 0 C 1.210938 0 1.09375 -0.046875 1 -0.140625 C 0.90625 -0.234375 0.859375 -0.351562 0.859375 -0.5 L 0.859375 -6.71875 C 0.859375 -6.863281 0.90625 -6.984375 1 -7.078125 C 1.09375 -7.171875 1.21875 -7.21875 1.375 -7.21875 C 1.507812 -7.21875 1.625 -7.171875 1.71875 -7.078125 C 1.820312 -6.984375 1.875 -6.863281 1.875 -6.71875 L 1.875 -4.125 L 5.53125 -4.125 L 5.53125 -6.71875 C 5.53125 -6.863281 5.582031 -6.984375 5.6875 -7.078125 C 5.789062 -7.171875 5.910156 -7.21875 6.046875 -7.21875 Z M 6.046875 -7.21875 "/></g></g></g><g fill="#000000" fill-opacity="1"><g transform="translate(111.444656, 196.969278)"><g><path d="M 5.46875 -2.90625 C 5.46875 -2.78125 5.414062 -2.675781 5.3125 -2.59375 C 5.21875 -2.507812 5.109375 -2.46875 4.984375 -2.46875 L 1.34375 -2.46875 C 1.394531 -1.96875 1.585938 -1.5625 1.921875 -1.25 C 2.253906 -0.945312 2.660156 -0.796875 3.140625 -0.796875 C 3.472656 -0.796875 3.742188 -0.84375 3.953125 -0.9375 C 4.160156 -1.039062 4.34375 -1.164062 4.5 -1.3125 C 4.601562 -1.375 4.703125 -1.40625 4.796875 -1.40625 C 4.910156 -1.40625 5.003906 -1.363281 5.078125 -1.28125 C 5.160156 -1.207031 5.203125 -1.113281 5.203125 -1 C 5.203125 -0.851562 5.132812 -0.722656 5 -0.609375 C 4.800781 -0.410156 4.535156 -0.238281 4.203125 -0.09375 C 3.878906 0.0390625 3.546875 0.109375 3.203125 0.109375 C 2.640625 0.109375 2.144531 -0.00390625 1.71875 -0.234375 C 1.300781 -0.472656 0.976562 -0.800781 0.75 -1.21875 C 0.519531 -1.644531 0.40625 -2.125 0.40625 -2.65625 C 0.40625 -3.226562 0.519531 -3.734375 0.75 -4.171875 C 0.988281 -4.609375 1.300781 -4.941406 1.6875 -5.171875 C 2.082031 -5.410156 2.503906 -5.53125 2.953125 -5.53125 C 3.390625 -5.53125 3.800781 -5.414062 4.1875 -5.1875 C 4.570312 -4.957031 4.878906 -4.644531 5.109375 -4.25 C 5.347656 -3.851562 5.46875 -3.40625 5.46875 -2.90625 Z M 2.953125 -4.625 C 2.566406 -4.625 2.234375 -4.515625 1.953125 -4.296875 C 1.671875 -4.078125 1.484375 -3.742188 1.390625 -3.296875 L 4.4375 -3.296875 L 4.4375 -3.375 C 4.40625 -3.738281 4.238281 -4.035156 3.9375 -4.265625 C 3.644531 -4.503906 3.316406 -4.625 2.953125 -4.625 Z M 2.953125 -4.625 "/></g></g></g><g fill="#000000" fill-opacity="1"><g transform="translate(124.036309, 196.969278)"><g><path d="M 5.109375 -5.46875 C 5.253906 -5.46875 5.375 -5.421875 5.46875 -5.328125 C 5.5625 -5.242188 5.609375 -5.125 5.609375 -4.96875 L 5.609375 -0.5 C 5.609375 -0.351562 5.5625 -0.234375 5.46875 -0.140625 C 5.375 -0.046875 5.253906 0 5.109375 0 C 4.972656 0 4.859375 -0.046875 4.765625 -0.140625 C 4.671875 -0.234375 4.625 -0.351562 4.625 -0.5 L 4.625 -0.765625 C 4.445312 -0.523438 4.203125 -0.316406 3.890625 -0.140625 C 3.585938 0.0234375 3.253906 0.109375 2.890625 0.109375 C 2.429688 0.109375 2.007812 -0.0078125 1.625 -0.25 C 1.238281 -0.5 0.9375 -0.835938 0.71875 -1.265625 C 0.507812 -1.691406 0.40625 -2.175781 0.40625 -2.71875 C 0.40625 -3.25 0.507812 -3.726562 0.71875 -4.15625 C 0.9375 -4.59375 1.234375 -4.929688 1.609375 -5.171875 C 1.992188 -5.410156 2.410156 -5.53125 2.859375 -5.53125 C 3.222656 -5.53125 3.5625 -5.453125 3.875 -5.296875 C 4.195312 -5.148438 4.445312 -4.957031 4.625 -4.71875 L 4.625 -4.96875 C 4.625 -5.113281 4.671875 -5.234375 4.765625 -5.328125 C 4.859375 -5.421875 4.972656 -5.46875 5.109375 -5.46875 Z M 3.015625 -0.796875 C 3.335938 -0.796875 3.625 -0.878906 3.875 -1.046875 C 4.125 -1.210938 4.316406 -1.441406 4.453125 -1.734375 C 4.597656 -2.023438 4.671875 -2.351562 4.671875 -2.71875 C 4.671875 -3.070312 4.597656 -3.390625 4.453125 -3.671875 C 4.316406 -3.960938 4.125 -4.191406 3.875 -4.359375 C 3.625 -4.535156 3.335938 -4.625 3.015625 -4.625 C 2.691406 -4.625 2.40625 -4.539062 2.15625 -4.375 C 1.90625 -4.207031 1.707031 -3.976562 1.5625 -3.6875 C 1.414062 -3.40625 1.34375 -3.082031 1.34375 -2.71875 C 1.34375 -2.351562 1.414062 -2.023438 1.5625 -1.734375 C 1.707031 -1.441406 1.90625 -1.210938 2.15625 -1.046875 C 2.40625 -0.878906 2.691406 -0.796875 3.015625 -0.796875 Z M 3.015625 -0.796875 "/></g></g></g><g fill="#000000" fill-opacity="1"><g transform="translate(137.081205, 196.969278)"><g><path d="M 1.796875 -0.5 C 1.796875 -0.351562 1.742188 -0.234375 1.640625 -0.140625 C 1.546875 -0.046875 1.429688 0 1.296875 0 C 1.160156 0 1.046875 -0.046875 0.953125 -0.140625 C 0.859375 -0.234375 0.8125 -0.351562 0.8125 -0.5 L 0.8125 -7.140625 C 0.8125 -7.273438 0.859375 -7.390625 0.953125 -7.484375 C 1.054688 -7.578125 1.175781 -7.625 1.3125 -7.625 C 1.445312 -7.625 1.5625 -7.578125 1.65625 -7.484375 C 1.75 -7.390625 1.796875 -7.273438 1.796875 -7.140625 Z M 1.796875 -0.5 "/></g></g></g><g fill="#000000" fill-opacity="1"><g transform="translate(146.407527, 196.969278)"><g><path d="M 2.203125 -4.4375 L 2.203125 -1.375 C 2.203125 -1.03125 2.351562 -0.859375 2.65625 -0.859375 C 2.707031 -0.859375 2.773438 -0.867188 2.859375 -0.890625 C 2.941406 -0.910156 3.003906 -0.921875 3.046875 -0.921875 C 3.140625 -0.921875 3.21875 -0.882812 3.28125 -0.8125 C 3.34375 -0.738281 3.375 -0.644531 3.375 -0.53125 C 3.375 -0.382812 3.289062 -0.257812 3.125 -0.15625 C 2.957031 -0.0507812 2.769531 0 2.5625 0 C 2.34375 0 2.132812 -0.0195312 1.9375 -0.0625 C 1.75 -0.113281 1.582031 -0.238281 1.4375 -0.4375 C 1.289062 -0.632812 1.21875 -0.929688 1.21875 -1.328125 L 1.21875 -4.4375 L 0.625 -4.4375 C 0.488281 -4.4375 0.378906 -4.476562 0.296875 -4.5625 C 0.210938 -4.65625 0.171875 -4.769531 0.171875 -4.90625 C 0.171875 -5.03125 0.210938 -5.132812 0.296875 -5.21875 C 0.378906 -5.300781 0.488281 -5.34375 0.625 -5.34375 L 1.21875 -5.34375 L 1.21875 -6.203125 C 1.21875 -6.347656 1.265625 -6.46875 1.359375 -6.5625 C 1.453125 -6.65625 1.570312 -6.703125 1.71875 -6.703125 C 1.851562 -6.703125 1.96875 -6.65625 2.0625 -6.5625 C 2.15625 -6.46875 2.203125 -6.347656 2.203125 -6.203125 L 2.203125 -5.34375 L 3.046875 -5.34375 C 3.179688 -5.34375 3.289062 -5.296875 3.375 -5.203125 C 3.457031 -5.117188 3.5 -5.015625 3.5 -4.890625 C 3.5 -4.753906 3.457031 -4.644531 3.375 -4.5625 C 3.289062 -4.476562 3.179688 -4.4375 3.046875 -4.4375 Z M 2.203125 -4.4375 "/></g></g></g><g fill="#000000" fill-opacity="1"><g transform="translate(157.042046, 196.969278)"><g><path d="M 3.421875 -5.5 C 4.628906 -5.5 5.234375 -4.75 5.234375 -3.25 L 5.234375 -0.5 C 5.234375 -0.351562 5.1875 -0.234375 5.09375 -0.140625 C 5 -0.046875 4.882812 0 4.75 0 C 4.601562 0 4.484375 -0.046875 4.390625 -0.140625 C 4.304688 -0.234375 4.265625 -0.351562 4.265625 -0.5 L 4.265625 -3.25 C 4.265625 -4.144531 3.882812 -4.59375 3.125 -4.59375 C 2.71875 -4.59375 2.378906 -4.460938 2.109375 -4.203125 C 1.847656 -3.941406 1.71875 -3.625 1.71875 -3.25 L 1.71875 -0.5 C 1.71875 -0.351562 1.671875 -0.234375 1.578125 -0.140625 C 1.484375 -0.046875 1.363281 0 1.21875 0 C 1.070312 0 0.953125 -0.046875 0.859375 -0.140625 C 0.773438 -0.234375 0.734375 -0.351562 0.734375 -0.5 L 0.734375 -7.140625 C 0.734375 -7.273438 0.78125 -7.390625 0.875 -7.484375 C 0.96875 -7.578125 1.082031 -7.625 1.21875 -7.625 C 1.363281 -7.625 1.484375 -7.578125 1.578125 -7.484375 C 1.671875 -7.390625 1.71875 -7.273438 1.71875 -7.140625 L 1.71875 -4.53125 C 1.882812 -4.789062 2.117188 -5.015625 2.421875 -5.203125 C 2.734375 -5.398438 3.066406 -5.5 3.421875 -5.5 Z M 3.421875 -5.5 "/></g></g></g><g fill="#000000" fill-opacity="1"><g transform="translate(169.726407, 196.969278)"><g/></g></g><g fill="#000000" fill-opacity="1"><g transform="translate(179.299944, 196.969278)"><g><path d="M 1.65625 -0.5 C 1.65625 -0.351562 1.609375 -0.234375 1.515625 -0.140625 C 1.421875 -0.046875 1.304688 0 1.171875 0 C 1.023438 0 0.90625 -0.046875 0.8125 -0.140625 C 0.726562 -0.234375 0.6875 -0.351562 0.6875 -0.5 L 0.6875 -4.953125 C 0.6875 -5.097656 0.726562 -5.21875 0.8125 -5.3125 C 0.90625 -5.40625 1.023438 -5.453125 1.171875 -5.453125 C 1.304688 -5.453125 1.421875 -5.40625 1.515625 -5.3125 C 1.609375 -5.21875 1.65625 -5.097656 1.65625 -4.953125 Z M 1.15625 -6.140625 C 0.957031 -6.140625 0.816406 -6.175781 0.734375 -6.25 C 0.648438 -6.320312 0.609375 -6.4375 0.609375 -6.59375 L 0.609375 -6.75 C 0.609375 -6.914062 0.65625 -7.03125 0.75 -7.09375 C 0.84375 -7.164062 0.984375 -7.203125 1.171875 -7.203125 C 1.359375 -7.203125 1.492188 -7.164062 1.578125 -7.09375 C 1.671875 -7.019531 1.71875 -6.90625 1.71875 -6.75 L 1.71875 -6.59375 C 1.71875 -6.425781 1.671875 -6.304688 1.578125 -6.234375 C 1.492188 -6.171875 1.351562 -6.140625 1.15625 -6.140625 Z M 1.15625 -6.140625 "/></g></g></g><g fill="#000000" fill-opacity="1"><g transform="translate(188.35844, 196.969278)"><g><path d="M 0.421875 -0.84375 C 0.359375 -0.9375 0.328125 -1.03125 0.328125 -1.125 C 0.328125 -1.257812 0.398438 -1.375 0.546875 -1.46875 C 0.617188 -1.519531 0.695312 -1.546875 0.78125 -1.546875 C 0.90625 -1.546875 1.019531 -1.492188 1.125 -1.390625 C 1.332031 -1.160156 1.550781 -0.984375 1.78125 -0.859375 C 2.019531 -0.742188 2.304688 -0.6875 2.640625 -0.6875 C 2.898438 -0.695312 3.128906 -0.757812 3.328125 -0.875 C 3.523438 -0.988281 3.625 -1.171875 3.625 -1.421875 C 3.625 -1.660156 3.519531 -1.835938 3.3125 -1.953125 C 3.113281 -2.078125 2.820312 -2.191406 2.4375 -2.296875 C 2.050781 -2.398438 1.726562 -2.507812 1.46875 -2.625 C 1.21875 -2.738281 1.003906 -2.898438 0.828125 -3.109375 C 0.648438 -3.328125 0.5625 -3.613281 0.5625 -3.96875 C 0.5625 -4.28125 0.648438 -4.550781 0.828125 -4.78125 C 1.003906 -5.019531 1.238281 -5.203125 1.53125 -5.328125 C 1.820312 -5.460938 2.140625 -5.53125 2.484375 -5.53125 C 2.816406 -5.53125 3.144531 -5.46875 3.46875 -5.34375 C 3.789062 -5.21875 4.054688 -5.03125 4.265625 -4.78125 C 4.347656 -4.675781 4.390625 -4.570312 4.390625 -4.46875 C 4.390625 -4.363281 4.335938 -4.257812 4.234375 -4.15625 C 4.160156 -4.09375 4.070312 -4.0625 3.96875 -4.0625 C 3.84375 -4.0625 3.742188 -4.101562 3.671875 -4.1875 C 3.523438 -4.351562 3.347656 -4.476562 3.140625 -4.5625 C 2.929688 -4.65625 2.695312 -4.703125 2.4375 -4.703125 C 2.175781 -4.703125 1.953125 -4.648438 1.765625 -4.546875 C 1.585938 -4.441406 1.5 -4.257812 1.5 -4 C 1.507812 -3.757812 1.613281 -3.582031 1.8125 -3.46875 C 2.019531 -3.351562 2.332031 -3.238281 2.75 -3.125 C 3.113281 -3.03125 3.414062 -2.925781 3.65625 -2.8125 C 3.894531 -2.707031 4.097656 -2.546875 4.265625 -2.328125 C 4.429688 -2.109375 4.515625 -1.820312 4.515625 -1.46875 C 4.515625 -1.144531 4.421875 -0.863281 4.234375 -0.625 C 4.046875 -0.394531 3.800781 -0.210938 3.5 -0.078125 C 3.207031 0.046875 2.894531 0.109375 2.5625 0.109375 C 2.125 0.109375 1.71875 0.0351562 1.34375 -0.109375 C 0.976562 -0.265625 0.671875 -0.507812 0.421875 -0.84375 Z M 0.421875 -0.84375 "/></g></g></g><g fill="#000000" fill-opacity="1"><g transform="translate(199.992137, 196.969278)"><g/></g></g><g fill="#000000" fill-opacity="1"><g transform="translate(209.56568, 196.969278)"><g><path d="M 9.078125 -7.25 C 9.203125 -7.25 9.316406 -7.203125 9.421875 -7.109375 C 9.535156 -7.015625 9.59375 -6.882812 9.59375 -6.71875 C 9.59375 -6.664062 9.582031 -6.609375 9.5625 -6.546875 L 7.4375 -0.3125 C 7.40625 -0.21875 7.347656 -0.144531 7.265625 -0.09375 C 7.179688 -0.0390625 7.085938 -0.0078125 6.984375 0 C 6.890625 0 6.796875 -0.0234375 6.703125 -0.078125 C 6.617188 -0.140625 6.554688 -0.21875 6.515625 -0.3125 L 4.90625 -4.078125 L 3.3125 -0.3125 C 3.269531 -0.21875 3.203125 -0.140625 3.109375 -0.078125 C 3.023438 -0.0234375 2.929688 0 2.828125 0 C 2.734375 -0.0078125 2.644531 -0.0390625 2.5625 -0.09375 C 2.476562 -0.144531 2.421875 -0.21875 2.390625 -0.3125 L 0.265625 -6.546875 C 0.242188 -6.609375 0.234375 -6.664062 0.234375 -6.71875 C 0.234375 -6.875 0.285156 -7 0.390625 -7.09375 C 0.503906 -7.195312 0.628906 -7.25 0.765625 -7.25 C 0.867188 -7.25 0.96875 -7.21875 1.0625 -7.15625 C 1.15625 -7.101562 1.210938 -7.03125 1.234375 -6.9375 L 2.984375 -1.765625 L 4.46875 -5.4375 C 4.507812 -5.53125 4.570312 -5.601562 4.65625 -5.65625 C 4.738281 -5.71875 4.832031 -5.75 4.9375 -5.75 C 5.039062 -5.75 5.132812 -5.71875 5.21875 -5.65625 C 5.300781 -5.601562 5.363281 -5.53125 5.40625 -5.4375 L 6.859375 -1.765625 L 8.59375 -6.9375 C 8.613281 -7.03125 8.671875 -7.101562 8.765625 -7.15625 C 8.859375 -7.21875 8.960938 -7.25 9.078125 -7.25 Z M 9.078125 -7.25 "/></g></g></g><g fill="#000000" fill-opacity="1"><g transform="translate(226.102528, 196.969278)"><g><path d="M 5.46875 -2.90625 C 5.46875 -2.78125 5.414062 -2.675781 5.3125 -2.59375 C 5.21875 -2.507812 5.109375 -2.46875 4.984375 -2.46875 L 1.34375 -2.46875 C 1.394531 -1.96875 1.585938 -1.5625 1.921875 -1.25 C 2.253906 -0.945312 2.660156 -0.796875 3.140625 -0.796875 C 3.472656 -0.796875 3.742188 -0.84375 3.953125 -0.9375 C 4.160156 -1.039062 4.34375 -1.164062 4.5 -1.3125 C 4.601562 -1.375 4.703125 -1.40625 4.796875 -1.40625 C 4.910156 -1.40625 5.003906 -1.363281 5.078125 -1.28125 C 5.160156 -1.207031 5.203125 -1.113281 5.203125 -1 C 5.203125 -0.851562 5.132812 -0.722656 5 -0.609375 C 4.800781 -0.410156 4.535156 -0.238281 4.203125 -0.09375 C 3.878906 0.0390625 3.546875 0.109375 3.203125 0.109375 C 2.640625 0.109375 2.144531 -0.00390625 1.71875 -0.234375 C 1.300781 -0.472656 0.976562 -0.800781 0.75 -1.21875 C 0.519531 -1.644531 0.40625 -2.125 0.40625 -2.65625 C 0.40625 -3.226562 0.519531 -3.734375 0.75 -4.171875 C 0.988281 -4.609375 1.300781 -4.941406 1.6875 -5.171875 C 2.082031 -5.410156 2.503906 -5.53125 2.953125 -5.53125 C 3.390625 -5.53125 3.800781 -5.414062 4.1875 -5.1875 C 4.570312 -4.957031 4.878906 -4.644531 5.109375 -4.25 C 5.347656 -3.851562 5.46875 -3.40625 5.46875 -2.90625 Z M 2.953125 -4.625 C 2.566406 -4.625 2.234375 -4.515625 1.953125 -4.296875 C 1.671875 -4.078125 1.484375 -3.742188 1.390625 -3.296875 L 4.4375 -3.296875 L 4.4375 -3.375 C 4.40625 -3.738281 4.238281 -4.035156 3.9375 -4.265625 C 3.644531 -4.503906 3.316406 -4.625 2.953125 -4.625 Z M 2.953125 -4.625 "/></g></g></g><g fill="#000000" fill-opacity="1"><g transform="translate(238.694187, 196.969278)"><g><path d="M 5.109375 -5.46875 C 5.253906 -5.46875 5.375 -5.421875 5.46875 -5.328125 C 5.5625 -5.242188 5.609375 -5.125 5.609375 -4.96875 L 5.609375 -0.5 C 5.609375 -0.351562 5.5625 -0.234375 5.46875 -0.140625 C 5.375 -0.046875 5.253906 0 5.109375 0 C 4.972656 0 4.859375 -0.046875 4.765625 -0.140625 C 4.671875 -0.234375 4.625 -0.351562 4.625 -0.5 L 4.625 -0.765625 C 4.445312 -0.523438 4.203125 -0.316406 3.890625 -0.140625 C 3.585938 0.0234375 3.253906 0.109375 2.890625 0.109375 C 2.429688 0.109375 2.007812 -0.0078125 1.625 -0.25 C 1.238281 -0.5 0.9375 -0.835938 0.71875 -1.265625 C 0.507812 -1.691406 0.40625 -2.175781 0.40625 -2.71875 C 0.40625 -3.25 0.507812 -3.726562 0.71875 -4.15625 C 0.9375 -4.59375 1.234375 -4.929688 1.609375 -5.171875 C 1.992188 -5.410156 2.410156 -5.53125 2.859375 -5.53125 C 3.222656 -5.53125 3.5625 -5.453125 3.875 -5.296875 C 4.195312 -5.148438 4.445312 -4.957031 4.625 -4.71875 L 4.625 -4.96875 C 4.625 -5.113281 4.671875 -5.234375 4.765625 -5.328125 C 4.859375 -5.421875 4.972656 -5.46875 5.109375 -5.46875 Z M 3.015625 -0.796875 C 3.335938 -0.796875 3.625 -0.878906 3.875 -1.046875 C 4.125 -1.210938 4.316406 -1.441406 4.453125 -1.734375 C 4.597656 -2.023438 4.671875 -2.351562 4.671875 -2.71875 C 4.671875 -3.070312 4.597656 -3.390625 4.453125 -3.671875 C 4.316406 -3.960938 4.125 -4.191406 3.875 -4.359375 C 3.625 -4.535156 3.335938 -4.625 3.015625 -4.625 C 2.691406 -4.625 2.40625 -4.539062 2.15625 -4.375 C 1.90625 -4.207031 1.707031 -3.976562 1.5625 -3.6875 C 1.414062 -3.40625 1.34375 -3.082031 1.34375 -2.71875 C 1.34375 -2.351562 1.414062 -2.023438 1.5625 -1.734375 C 1.707031 -1.441406 1.90625 -1.210938 2.15625 -1.046875 C 2.40625 -0.878906 2.691406 -0.796875 3.015625 -0.796875 Z M 3.015625 -0.796875 "/></g></g></g><g fill="#000000" fill-opacity="1"><g transform="translate(251.739077, 196.969278)"><g><path d="M 1.796875 -0.5 C 1.796875 -0.351562 1.742188 -0.234375 1.640625 -0.140625 C 1.546875 -0.046875 1.429688 0 1.296875 0 C 1.160156 0 1.046875 -0.046875 0.953125 -0.140625 C 0.859375 -0.234375 0.8125 -0.351562 0.8125 -0.5 L 0.8125 -7.140625 C 0.8125 -7.273438 0.859375 -7.390625 0.953125 -7.484375 C 1.054688 -7.578125 1.175781 -7.625 1.3125 -7.625 C 1.445312 -7.625 1.5625 -7.578125 1.65625 -7.484375 C 1.75 -7.390625 1.796875 -7.273438 1.796875 -7.140625 Z M 1.796875 -0.5 "/></g></g></g><g fill="#000000" fill-opacity="1"><g transform="translate(261.065405, 196.969278)"><g><path d="M 2.203125 -4.4375 L 2.203125 -1.375 C 2.203125 -1.03125 2.351562 -0.859375 2.65625 -0.859375 C 2.707031 -0.859375 2.773438 -0.867188 2.859375 -0.890625 C 2.941406 -0.910156 3.003906 -0.921875 3.046875 -0.921875 C 3.140625 -0.921875 3.21875 -0.882812 3.28125 -0.8125 C 3.34375 -0.738281 3.375 -0.644531 3.375 -0.53125 C 3.375 -0.382812 3.289062 -0.257812 3.125 -0.15625 C 2.957031 -0.0507812 2.769531 0 2.5625 0 C 2.34375 0 2.132812 -0.0195312 1.9375 -0.0625 C 1.75 -0.113281 1.582031 -0.238281 1.4375 -0.4375 C 1.289062 -0.632812 1.21875 -0.929688 1.21875 -1.328125 L 1.21875 -4.4375 L 0.625 -4.4375 C 0.488281 -4.4375 0.378906 -4.476562 0.296875 -4.5625 C 0.210938 -4.65625 0.171875 -4.769531 0.171875 -4.90625 C 0.171875 -5.03125 0.210938 -5.132812 0.296875 -5.21875 C 0.378906 -5.300781 0.488281 -5.34375 0.625 -5.34375 L 1.21875 -5.34375 L 1.21875 -6.203125 C 1.21875 -6.347656 1.265625 -6.46875 1.359375 -6.5625 C 1.453125 -6.65625 1.570312 -6.703125 1.71875 -6.703125 C 1.851562 -6.703125 1.96875 -6.65625 2.0625 -6.5625 C 2.15625 -6.46875 2.203125 -6.347656 2.203125 -6.203125 L 2.203125 -5.34375 L 3.046875 -5.34375 C 3.179688 -5.34375 3.289062 -5.296875 3.375 -5.203125 C 3.457031 -5.117188 3.5 -5.015625 3.5 -4.890625 C 3.5 -4.753906 3.457031 -4.644531 3.375 -4.5625 C 3.289062 -4.476562 3.179688 -4.4375 3.046875 -4.4375 Z M 2.203125 -4.4375 "/></g></g></g><g fill="#000000" fill-opacity="1"><g transform="translate(271.699929, 196.969278)"><g><path d="M 3.421875 -5.5 C 4.628906 -5.5 5.234375 -4.75 5.234375 -3.25 L 5.234375 -0.5 C 5.234375 -0.351562 5.1875 -0.234375 5.09375 -0.140625 C 5 -0.046875 4.882812 0 4.75 0 C 4.601562 0 4.484375 -0.046875 4.390625 -0.140625 C 4.304688 -0.234375 4.265625 -0.351562 4.265625 -0.5 L 4.265625 -3.25 C 4.265625 -4.144531 3.882812 -4.59375 3.125 -4.59375 C 2.71875 -4.59375 2.378906 -4.460938 2.109375 -4.203125 C 1.847656 -3.941406 1.71875 -3.625 1.71875 -3.25 L 1.71875 -0.5 C 1.71875 -0.351562 1.671875 -0.234375 1.578125 -0.140625 C 1.484375 -0.046875 1.363281 0 1.21875 0 C 1.070312 0 0.953125 -0.046875 0.859375 -0.140625 C 0.773438 -0.234375 0.734375 -0.351562 0.734375 -0.5 L 0.734375 -7.140625 C 0.734375 -7.273438 0.78125 -7.390625 0.875 -7.484375 C 0.96875 -7.578125 1.082031 -7.625 1.21875 -7.625 C 1.363281 -7.625 1.484375 -7.578125 1.578125 -7.484375 C 1.671875 -7.390625 1.71875 -7.273438 1.71875 -7.140625 L 1.71875 -4.53125 C 1.882812 -4.789062 2.117188 -5.015625 2.421875 -5.203125 C 2.734375 -5.398438 3.066406 -5.5 3.421875 -5.5 Z M 3.421875 -5.5 "/></g></g></g></svg>